<?xml version="1.0" encoding="utf-8"?>
<!-- Generator: Adobe Illustrator 24.1.1, SVG Export Plug-In . SVG Version: 6.00 Build 0)  -->
<svg version="1.1" id="Layer_1" xmlns="http://www.w3.org/2000/svg" xmlns:xlink="http://www.w3.org/1999/xlink" x="0px" y="0px"
	 viewBox="0 0 512 512" style="enable-background:new 0 0 512 512;" xml:space="preserve">
<g>
	<path d="M256,0C114.6,0,0,114.6,0,256s114.6,256,256,256s256-114.6,256-256S397.4,0,256,0z M256,490.7
		C126.4,490.7,21.3,385.6,21.3,256S126.4,21.3,256,21.3S490.7,126.4,490.7,256S385.6,490.7,256,490.7z M474,256
		c0,102.5-70.8,188.4-166.1,211.7c-5.7-11.2-11.3-21.7-16-30.7c13.7,5.3,41.2,15.3,47.1,13.1c8.1-3.1,6.1-67.2-2.9-69.2
		c-7.2-1.6-34.8,17.9-45.7,25.8l0.8,3.3c1.7,8.4,3.1,21.2,0.7,26.6l-0.1,0.3l-1.5,1.9c-6,4-23,6.1-32,4l-1.4-0.4
		c-14.8,8.4-42.8,23.7-48,20.8c-7-4.1-8-57.2-7-70.2c0.8-9.8,35.3,6.1,52.1,14.5c3.7-3.5,12.8-5.8,20.9-6.7
		c-12.2-29.6-21.1-63.5-15.7-87.6l0.1,0.1c7.6,5.3,58.3,22.4,83.4,21.9c25.2-0.5,66.4-15.8,61.9-28.3c-4.5-12.3-45.6,10.9-88.3,6.9
		c-31.8-2.9-37.3-17.2-30.3-27.5c8.8-13.1,24.9,2.4,51.4-5.5c26.6-7.9,63.7-22.1,77.5-29.8c31.9-17.8-13.3-25.2-24-20.3
		c-10.1,4.8-45.2,13.6-61.6,17.5c9.1-32.3-12.9-88.5-37.5-113.1c-8-8-20.3-13-34.3-15.7c-5.3-7.3-13.9-14.3-26.1-20.8
		c-23.6-12.3-50.5-16.8-76.8-12.5l-0.5,0.1l-0.7,0.1l0.1,0.1c-3.2,0.6-5.1,1.7-7.7,2.1c3.2,0.3,15.1,5.9,22.6,8.9
		c-3.7,1.4-8.8,2.3-12.8,3.9c-1.5,0.3-2.9,0.6-4.3,1.2c-3.7,1.7-6.5,8-6.4,11c17.9-1.8,44.4-0.5,63.8,5.3
		c-13.7,1.9-26.3,5.5-35.4,10.3l-1.1,0.6l-3.2,1.4c-29.2,15.3-42.1,51.2-34.4,94.3c6.9,38.9,35.5,172.6,48.8,236.1
		C98.7,431.7,38,351,38,256c0-120.4,97.6-218,218-218S474,135.6,474,256L474,256z M194,204.4c-8.9,0-16.2,7.3-16.2,16.2
		c0,8.9,7.2,16.2,16.2,16.2C215.6,236.7,215.6,204.4,194,204.4L194,204.4z M201.3,219.3c-2.3,0-4.2-1.8-4.2-4.2
		c0-2.3,1.8-4.2,4.2-4.2C206.8,211,206.8,219.3,201.3,219.3L201.3,219.3z M302,197.1c-7.8-0.3-14.4,6-14.4,13.9
		c0,7.8,6.6,14.2,14.4,13.8C320.5,224.9,320.5,197.1,302,197.1L302,197.1z M308.2,209.9c-1.9,0-3.6-1.6-3.6-3.6
		c0-1.9,1.7-3.6,3.6-3.6C313,202.8,313,209.9,308.2,209.9z M198.7,173.7c0,0-12.2-5.5-24,1.9c-11.8,7.5-11.4,15.1-11.4,15.1
		s-6.3-14,10.5-20.9C190.5,163,198.7,173.8,198.7,173.7L198.7,173.7z M310.4,172.7c0,0-8.8-5-15.6-4.9c-14,0.2-17.7,6.3-17.7,6.3
		s2.3-14.7,20.2-11.7C303.1,163.4,308,167.3,310.4,172.7L310.4,172.7z"/>
</g>
</svg>
